<?xml version="1.0" encoding="utf-8"?>
<!-- Generator: Adobe Illustrator 19.2.1, SVG Export Plug-In . SVG Version: 6.00 Build 0)  -->
<svg version="1.1" id="Layer_1" xmlns="http://www.w3.org/2000/svg" xmlns:xlink="http://www.w3.org/1999/xlink" x="0px" y="0px"
	 viewBox="0 0 175.4 36.7" style="enable-background:new 0 0 175.4 36.7;" xml:space="preserve">
<style type="text/css">
	.st0{fill:#00ADBB;}
</style>
<g>
	<path class="st0" d="M18.4,31.9l-4.8,4.8l-6.1-6.1l6.1-6.1l1.9,1.9l-4.2,4.2l2.4,2.4l3.5-3.5v-6.3l-3.5-3.5H7.3l-3.5,3.5l2.4,2.4
		l4.2-4.2l1.9,1.9l-6.1,6.1L0,23.2l4.8-4.8L0,13.5l6.1-6.1l6.1,6.1l-1.9,1.9l-4.2-4.2l-2.4,2.4L7.3,17h6.3l3.5-3.5V7.3l-3.5-3.5
		l-2.4,2.4l4.2,4.2l-1.9,1.9L7.4,6.1L13.5,0l4.8,4.8L23.2,0l6.1,6.1l-6.1,6.1l-1.9-1.9l4.2-4.2l-2.4-2.4l-3.5,3.5v6.3l3.5,3.5h6.3
		l3.5-3.5l-2.4-2.4l-4.2,4.2l-1.9-1.9l6.1-6.1l6.1,6.1l-4.8,4.8l4.8,4.8l-6.1,6.1l-6.1-6.1l1.9-1.9l4.2,4.2l2.4-2.4l-3.5-3.5h-6.3
		l-3.5,3.5v6.3l3.5,3.5l2.4-2.4l-4.2-4.2l1.9-1.9l6.1,6.1l-6.1,6.1L18.4,31.9z M18.4,20.7l2.4-2.4L18.4,16L16,18.4L18.4,20.7z"/>
	<g>
		<path class="st0" d="M44.9,4.6h2.7l3,5.6l3-5.6h2.7v12.6h-3v-3.7c0-1.2,0.1-2.4,0.3-3.6l-2.4,4.5h-1.1l-2.4-4.5
			c0.2,1.2,0.3,2.4,0.3,3.6v3.7h-3V4.6z"/>
		<path class="st0" d="M60.3,4.6h3.1l4,12.6h-3.2l-0.5-1.9h-3.6l-0.5,1.9h-3.2L60.3,4.6z M63,12.7l-0.6-2.2
			c-0.2-0.8-0.4-1.7-0.6-2.7c-0.1,1-0.3,1.9-0.5,2.7l-0.6,2.2H63z"/>
		<path class="st0" d="M70.9,4.6H74l4,12.6h-3.2l-0.5-1.9h-3.6l-0.5,1.9h-3.2L70.9,4.6z M73.6,12.7L73,10.6
			c-0.2-0.8-0.4-1.7-0.6-2.7c-0.1,1-0.3,1.9-0.5,2.7l-0.6,2.2H73.6z"/>
		<path class="st0" d="M78.4,4.6h4.7c2.4,0,4.4,1.4,4.4,4.2c0,1.8-0.7,3.1-1.9,3.7l2.4,4.6h-3.4l-2-4.1h-1.1v4.1h-3.1V4.6z M83,10.3
			c0.9,0,1.5-0.5,1.5-1.4c0-0.9-0.6-1.4-1.5-1.4h-1.4v2.8H83z"/>
		<polygon class="st0" points="100.6,7.5 96.2,7.5 96.2,9.8 100.3,9.8 100.3,12.8 96.2,12.8 96.2,17.2 93.1,17.2 93.1,4.6 
			100.6,4.6 		"/>
		<path class="st0" d="M103.5,10.9c0-3.9,1.5-6.5,5.1-6.5c3.6,0,5.1,2.6,5.1,6.5c0,3.9-1.5,6.5-5.1,6.5
			C105,17.4,103.5,14.8,103.5,10.9 M110.5,10.9c0-2.3-0.6-3.5-1.9-3.5c-1.3,0-1.8,1.1-1.8,3.5c0,2.3,0.6,3.5,1.8,3.5
			C109.9,14.3,110.5,13.2,110.5,10.9"/>
		<polygon class="st0" points="114.7,4.6 117.8,4.6 117.8,9.5 118.5,9.5 120.6,4.6 124.2,4.6 121.2,10.9 124.3,17.2 120.7,17.2 
			118.6,12.3 117.8,12.3 117.8,17.2 114.7,17.2 		"/>
		<path class="st0" d="M124.6,13.1V4.6h3.1v8.3c0,1.1,0.6,1.6,1.6,1.6c1,0,1.6-0.5,1.6-1.6V4.6h3.1v8.5c0,2.9-1.8,4.3-4.7,4.3
			C126.5,17.4,124.6,16.1,124.6,13.1"/>
		<polygon class="st0" points="138.4,14.2 142.7,14.2 142.7,17.2 135.3,17.2 135.3,4.6 138.4,4.6 		"/>
		<polygon class="st0" points="146.5,14.2 150.8,14.2 150.8,17.2 143.4,17.2 143.4,4.6 146.5,4.6 		"/>
		<path class="st0" d="M154.6,4.6h3.1l4,12.6h-3.2l-0.5-1.9h-3.6l-0.5,1.9h-3.2L154.6,4.6z M157.3,12.7l-0.6-2.2
			c-0.2-0.8-0.4-1.7-0.6-2.7c-0.1,1-0.3,1.9-0.5,2.7l-0.6,2.2H157.3z"/>
		<path class="st0" d="M162.2,4.6h4.7c2.4,0,4.4,1.4,4.4,4.2c0,1.8-0.7,3.1-1.9,3.7l2.4,4.6h-3.4l-2-4.1h-1.1v4.1h-3.1V4.6z
			 M166.7,10.3c0.9,0,1.5-0.5,1.5-1.4c0-0.9-0.6-1.4-1.5-1.4h-1.4v2.8H166.7z"/>
		<rect x="172.3" y="4.6" class="st0" width="3.1" height="12.6"/>
		<rect x="88.6" y="4.6" class="st0" width="3.1" height="2.8"/>
		<rect x="88.6" y="8.8" class="st0" width="3.1" height="8.3"/>
	</g>
	<g>
		<path class="st0" d="M45.1,21h1l3.3,6.6l3.3-6.6h1v11h-0.9v-6.7c0-0.9,0-1.7,0.1-2.6L49.6,29h-0.5L46,22.6
			c0.1,0.9,0.1,1.7,0.1,2.6v6.7h-0.9V21z"/>
		<path class="st0" d="M60.5,21h1l3.7,11h-1l-1-2.9h-4.5l-1,2.9h-1L60.5,21z M63,28.1l-1.6-4.8c-0.1-0.4-0.3-0.9-0.4-1.3
			c-0.1,0.4-0.2,0.8-0.4,1.3l-1.6,4.8H63z"/>
		<path class="st0" d="M71,21h1l3.7,11h-1l-1-2.9h-4.5l-1,2.9h-1L71,21z M73.4,28.1l-1.6-4.8c-0.1-0.4-0.3-0.9-0.4-1.3
			c-0.1,0.4-0.2,0.8-0.4,1.3l-1.6,4.8H73.4z"/>
		<path class="st0" d="M78.8,21H82c1.9,0,3.4,1.1,3.4,3.3c0,1.6-0.8,2.8-2.4,3.1l2.8,4.6h-1.1l-2.7-4.4h-2.4v4.4h-0.9V21z
			 M82.1,26.6c1.5,0,2.5-0.8,2.5-2.4c0-1.6-1-2.4-2.4-2.4h-2.4v4.8H82.1z"/>
		<path class="st0" d="M90.2,31.9h-0.9V21h0.9V31.9z"/>
		<path class="st0" d="M100.1,21.9h-4.8v4.3h4.3V27h-4.3v4.9h-0.9V21h5.7V21.9z"/>
		<path class="st0" d="M107.7,31.3v-0.9c0.9,0.6,1.8,0.8,2.9,0.8c1.5,0,2.5-0.7,2.5-2c0-2.9-5.6-2.1-5.6-5.6c0-1.8,1.5-2.8,3.2-2.8
			c1,0,1.8,0.2,2.6,0.7v0.9c-0.8-0.5-1.6-0.7-2.5-0.7c-1.4,0-2.4,0.6-2.4,1.9c0,2.7,5.6,2.1,5.6,5.6c0,2-1.5,2.9-3.3,2.9
			C109.6,32.1,108.6,31.9,107.7,31.3z"/>
		<path class="st0" d="M116.9,26.5c0-3.6,1.9-5.7,4.3-5.7c0.8,0,1.4,0.2,2.1,0.5v0.8c-0.6-0.3-1.3-0.5-2-0.5c-2.1,0-3.4,1.7-3.4,4.9
			c0,3,1.3,4.7,3.4,4.7c0.8,0,1.5-0.2,2.2-0.5v0.9c-0.7,0.4-1.5,0.5-2.3,0.5C118.8,32.1,116.9,30.3,116.9,26.5z"/>
		<path class="st0" d="M133.8,31.9h-0.9v-5.1h-5.1v5.1h-0.9V21h0.9v5h5.1v-5h0.9V31.9z"/>
		<path class="st0" d="M137.5,26.5c0-3.4,1.3-5.6,4-5.6c2.6,0,4,2.2,4,5.6c0,3.4-1.3,5.6-4,5.6C138.8,32.1,137.5,29.9,137.5,26.5z
			 M144.5,26.5c0-3-1-4.8-3-4.8c-2,0-3,1.8-3,4.8s1,4.8,3,4.8C143.5,31.2,144.5,29.4,144.5,26.5z"/>
		<path class="st0" d="M148.6,26.5c0-3.4,1.3-5.6,4-5.6c2.6,0,4,2.2,4,5.6c0,3.4-1.3,5.6-4,5.6C149.9,32.1,148.6,29.9,148.6,26.5z
			 M155.6,26.5c0-3-1-4.8-3-4.8c-2,0-3,1.8-3,4.8s1,4.8,3,4.8C154.6,31.2,155.6,29.4,155.6,26.5z"/>
		<path class="st0" d="M161.1,31h4.8v0.9h-5.7V21h0.9V31z"/>
		<path class="st0" d="M168.6,31.3v-0.9c0.9,0.6,1.8,0.8,2.9,0.8c1.5,0,2.5-0.7,2.5-2c0-2.9-5.6-2.1-5.6-5.6c0-1.8,1.5-2.8,3.2-2.8
			c1,0,1.8,0.2,2.6,0.7v0.9c-0.8-0.5-1.6-0.7-2.5-0.7c-1.4,0-2.4,0.6-2.4,1.9c0,2.7,5.6,2.1,5.6,5.6c0,2-1.5,2.9-3.3,2.9
			C170.4,32.1,169.5,31.9,168.6,31.3z"/>
	</g>
</g>
</svg>
